<?xml version="1.0" encoding="utf-8"?>
<!-- Generator: Adobe Illustrator 26.1.0, SVG Export Plug-In . SVG Version: 6.00 Build 0)  -->
<svg version="1.1" id="Layer_1" xmlns="http://www.w3.org/2000/svg" xmlns:xlink="http://www.w3.org/1999/xlink" x="0px" y="0px"
	 viewBox="0 0 90 90" style="enable-background:new 0 0 90 90;" xml:space="preserve">
<style type="text/css">
	.st0{clip-path:url(#SVGID_00000152255169880957062640000015575265959639093949_);fill:#8DC63F;}
</style>
<g>
	<g>
		<defs>
			<rect id="SVGID_1_" width="90" height="90"/>
		</defs>
		<clipPath id="SVGID_00000174578950151301286630000015946483388083312260_">
			<use xlink:href="#SVGID_1_"  style="overflow:visible;"/>
		</clipPath>
		<path style="clip-path:url(#SVGID_00000174578950151301286630000015946483388083312260_);fill:#8DC63F;" d="M34.4,76.4v3.2
			c0,3,2.5,5.5,5.5,5.5h10.2c3,0,5.5-2.5,5.5-5.5v-3.2H34.4z M66.5,39.3c-2.2-8.3-9.2-14.8-17.7-16.2c-13.9-2.3-26,8.4-26,21.9
			c0,4.2,1.2,8.1,3.2,11.5c1.2,2,2.8,3.9,4.6,5.4c2.4,2,3.8,5.1,3.8,8.3v0.7h21.2v-0.7c0-3.2,1.4-6.2,3.8-8.3
			c1.8-1.5,3.4-3.4,4.6-5.4C66.9,51.6,68.1,45.6,66.5,39.3L66.5,39.3z M45,14.5c1.5,0,2.8-1.2,2.8-2.8v-4c0-1.5-1.2-2.8-2.8-2.8
			c-1.5,0-2.8,1.2-2.8,2.8v4.1C42.2,13.3,43.5,14.5,45,14.5z M31,14.7c0.4,1.1,1.5,1.8,2.6,1.8c0.3,0,0.6-0.1,0.9-0.2
			c1.4-0.5,2.2-2.1,1.7-3.5L34.8,9c-0.5-1.4-2.1-2.2-3.5-1.7c-1.4,0.5-2.2,2.1-1.7,3.5L31,14.7z M21.5,21.3c0.5,0.7,1.3,1,2.1,1
			c0.6,0,1.3-0.2,1.8-0.6c1.2-1,1.3-2.7,0.3-3.9l-2.6-3.1c-1-1.2-2.7-1.3-3.9-0.3c-1.2,1-1.3,2.7-0.3,3.9L21.5,21.3z M68.5,68.6
			c-1-1.2-2.7-1.3-3.9-0.3c-1.2,1-1.3,2.7-0.3,3.9l2.6,3.1c0.5,0.7,1.3,1,2.1,1c0.6,0,1.3-0.2,1.8-0.6c1.2-1,1.3-2.7,0.3-3.9
			L68.5,68.6z M11.3,28.7l3.5,2c0.4,0.3,0.9,0.4,1.4,0.4c1,0,1.9-0.5,2.4-1.4c0.8-1.3,0.3-3-1-3.8l-3.5-2c-1.3-0.8-3-0.3-3.8,1
			C9.5,26.3,10,27.9,11.3,28.7L11.3,28.7z M78.7,61.2l-3.5-2c-1.3-0.8-3-0.3-3.8,1s-0.3,3,1,3.8l3.5,2c0.4,0.3,0.9,0.4,1.4,0.4
			c1,0,1.9-0.5,2.4-1.4C80.5,63.7,80,62,78.7,61.2L78.7,61.2z M7.8,41.2l4,0.7c0.2,0,0.3,0,0.5,0c1.3,0,2.5-0.9,2.7-2.3
			c0.3-1.5-0.7-2.9-2.2-3.2l-4-0.7c-1.5-0.3-2.9,0.7-3.2,2.2C5.3,39.5,6.3,41,7.8,41.2L7.8,41.2z M82.2,48.7l-4-0.7
			c-1.5-0.3-2.9,0.7-3.2,2.2c-0.3,1.5,0.7,2.9,2.2,3.2l4,0.7c0.2,0,0.3,0,0.5,0c1.3,0,2.5-0.9,2.7-2.3C84.7,50.4,83.7,49,82.2,48.7
			L82.2,48.7z M15,50.3c-0.3-1.5-1.7-2.5-3.2-2.2l-4,0.7c-1.5,0.3-2.5,1.7-2.2,3.2c0.2,1.3,1.4,2.3,2.7,2.3c0.2,0,0.3,0,0.5,0l4-0.7
			C14.3,53.2,15.3,51.8,15,50.3L15,50.3z M75,39.7c0.2,1.3,1.4,2.3,2.7,2.3c0.2,0,0.3,0,0.5,0l4-0.7c1.5-0.3,2.5-1.7,2.2-3.2
			s-1.7-2.5-3.2-2.2l-4,0.7C75.7,36.7,74.7,38.2,75,39.7L75,39.7z M18.6,60.2c-0.8-1.3-2.5-1.8-3.8-1l-3.5,2c-1.3,0.8-1.8,2.5-1,3.8
			c0.5,0.9,1.4,1.4,2.4,1.4c0.5,0,0.9-0.1,1.4-0.4l3.5-2C18.9,63.2,19.4,61.5,18.6,60.2L18.6,60.2z M71.4,29.7
			c0.5,0.9,1.4,1.4,2.4,1.4c0.5,0,0.9-0.1,1.4-0.4l3.5-2c1.3-0.8,1.8-2.5,1-3.8s-2.5-1.8-3.8-1l-3.5,2
			C71.1,26.7,70.6,28.4,71.4,29.7L71.4,29.7z M21.5,68.6l-2.6,3.1c-1,1.2-0.8,2.9,0.3,3.9c0.5,0.4,1.1,0.6,1.8,0.6
			c0.8,0,1.6-0.3,2.1-1l2.6-3.1c1-1.2,0.8-2.9-0.3-3.9C24.2,67.3,22.5,67.5,21.5,68.6L21.5,68.6z M66.4,22.3c0.8,0,1.6-0.3,2.1-1
			l2.6-3.1c1-1.2,0.8-2.9-0.3-3.9c-1.2-1-2.9-0.8-3.9,0.3l-2.6,3.1c-1,1.2-0.8,2.9,0.3,3.9C65.1,22.1,65.7,22.3,66.4,22.3z
			 M55.4,16.3c0.3,0.1,0.6,0.2,0.9,0.2c1.1,0,2.2-0.7,2.6-1.8l1.4-3.8c0.5-1.4-0.2-3-1.7-3.5c-1.4-0.5-3,0.2-3.5,1.7l-1.4,3.8
			C53.2,14.2,54,15.8,55.4,16.3z"/>
	</g>
</g>
</svg>
